<?xml version="1.0" standalone="no"?>
<!DOCTYPE svg PUBLIC "-//W3C//DTD SVG 20010904//EN"
 "http://www.w3.org/TR/2001/REC-SVG-20010904/DTD/svg10.dtd">
<svg version="1.0" xmlns="http://www.w3.org/2000/svg"
 width="70.000000pt" height="70.000000pt" viewBox="0 0 70.000000 70.000000"
 preserveAspectRatio="xMidYMid meet">
<metadata>
Created by potrace 1.11, written by Peter Selinger 2001-2013
</metadata>
<g transform="translate(0.000000,70.000000) scale(0.100000,-0.100000)"
fill="#000000" stroke="none">
<path d="M200 609 c0 -5 5 -7 10 -4 6 3 10 8 10 11 0 2 -4 4 -10 4 -5 0 -10
-5 -10 -11z"/>
<path d="M495 610 c3 -5 8 -10 11 -10 2 0 4 5 4 10 0 6 -5 10 -11 10 -5 0 -7
-4 -4 -10z"/>
<path d="M330 604 c-20 -7 -61 -24 -81 -34 -9 -5 -33 -12 -53 -15 l-36 -7 0
-70 c0 -39 5 -88 12 -110 10 -33 9 -41 -3 -50 -11 -8 -11 -9 4 -4 12 4 17 0
17 -14 0 -10 5 -22 10 -25 6 -3 10 -15 10 -26 0 -10 4 -19 9 -19 5 0 12 -9 16
-20 3 -11 31 -44 62 -75 l55 -55 39 31 c61 48 105 117 133 210 32 105 36 216
9 225 -28 9 -97 35 -113 44 -24 12 -73 19 -90 14z m36 -13 c5 -5 43 -20 84
-34 l75 -26 3 -41 c4 -58 -23 -180 -53 -241 -29 -56 -100 -139 -120 -139 -21
0 -92 89 -125 155 -20 42 -33 88 -42 153 -14 109 -15 108 80 142 34 12 65 27
68 31 7 11 17 11 30 0z"/>
<path d="M359 493 c11 -22 34 -104 29 -108 -2 -1 -18 -5 -37 -9 -32 -6 -33 -5
-27 22 4 15 9 41 12 57 4 25 3 27 -6 12 -12 -19 -70 -184 -70 -200 0 -21 25 2
35 34 10 30 17 35 54 40 47 6 58 -2 67 -49 4 -18 13 -32 20 -32 19 0 19 -1
-21 129 -19 62 -35 115 -35 117 0 2 -7 4 -15 4 -11 0 -13 -5 -6 -17z"/>
<path d="M175 590 c-3 -5 -1 -10 4 -10 6 0 11 5 11 10 0 6 -2 10 -4 10 -3 0
-8 -4 -11 -10z"/>
<path d="M520 590 c0 -5 5 -10 11 -10 5 0 7 5 4 10 -3 6 -8 10 -11 10 -2 0 -4
-4 -4 -10z"/>
<path d="M568 548 c10 -21 18 -29 20 -20 2 8 -5 24 -17 35 l-20 21 17 -36z"/>
<path d="M125 537 c-4 -10 -5 -21 -1 -24 10 -10 18 4 13 24 -4 17 -4 17 -12 0z"/>
<path d="M100 485 c0 -8 7 -15 15 -15 9 0 12 6 9 15 -4 8 -10 15 -15 15 -5 0
-9 -7 -9 -15z"/>
<path d="M596 491 c-4 -7 -5 -15 -2 -18 9 -9 19 4 14 18 -4 11 -6 11 -12 0z"/>
<path d="M82 440 c1 -13 9 -25 16 -28 17 -5 15 23 -4 39 -14 11 -15 10 -12
-11z"/>
<path d="M612 448 c-17 -17 -15 -38 3 -38 9 0 15 9 15 25 0 29 -1 30 -18 13z"/>
<path d="M70 391 c0 -13 29 -35 37 -28 7 8 -15 37 -28 37 -5 0 -9 -4 -9 -9z"/>
<path d="M610 380 c-9 -16 -8 -20 5 -20 8 0 15 2 15 4 0 2 3 11 6 20 9 23 -13
20 -26 -4z"/>
<path d="M82 318 c3 -7 13 -15 22 -16 12 -3 17 1 14 10 -3 7 -13 15 -22 16
-12 3 -17 -1 -14 -10z"/>
<path d="M595 321 c-3 -5 -1 -12 5 -16 12 -7 30 2 30 16 0 12 -27 12 -35 0z"/>
<path d="M100 260 c12 -22 18 -24 39 -11 19 12 4 31 -25 31 -22 0 -23 -3 -14
-20z"/>
<path d="M567 273 c-11 -11 -8 -21 9 -27 17 -6 44 9 44 25 0 10 -44 12 -53 2z"/>
<path d="M143 232 c-27 -4 -29 -14 -8 -32 19 -16 76 -4 69 15 -6 15 -30 22
-61 17z"/>
<path d="M526 228 c-23 -13 -20 -25 10 -32 24 -6 54 7 54 24 0 12 -46 18 -64
8z"/>
<path d="M185 176 c-18 -13 -18 -14 6 -26 13 -7 29 -19 34 -25 11 -13 65 -29
65 -20 0 4 -13 20 -30 38 -16 18 -30 35 -30 40 0 12 -25 8 -45 -7z"/>
<path d="M456 144 l-38 -45 28 7 c38 9 45 14 39 25 -4 5 2 9 12 9 11 0 28 6
39 14 18 14 18 15 -9 25 -16 6 -29 11 -30 11 -1 -1 -19 -21 -41 -46z"/>
</g>
</svg>
